<?xml version="1.0" standalone="no"?>
<!DOCTYPE svg PUBLIC "-//W3C//DTD SVG 20010904//EN"
 "http://www.w3.org/TR/2001/REC-SVG-20010904/DTD/svg10.dtd">
<svg version="1.0" xmlns="http://www.w3.org/2000/svg"
 width="840.000000pt" height="278.000000pt" viewBox="0 0 840.000000 278.000000"
 preserveAspectRatio="xMidYMid meet">

<g transform="translate(0.000000,278.000000) scale(0.100000,-0.100000)"
fill="#000000" stroke="none">
<path d="M1729 2260 c-74 -61 -176 -145 -228 -187 l-94 -78 -41 50 c-78 96
-156 166 -211 190 -116 52 -243 51 -357 -3 -37 -17 -156 -108 -323 -246 l-265
-218 43 -53 c23 -29 105 -129 181 -221 76 -93 143 -174 148 -180 5 -7 -18 -33
-68 -74 -146 -121 -196 -212 -197 -361 0 -102 23 -174 84 -254 59 -78 410
-500 419 -503 4 -1 65 45 136 104 275 227 326 266 333 258 4 -5 32 -38 62 -74
75 -90 105 -116 174 -150 86 -42 166 -55 251 -41 85 15 153 49 241 122 37 31
151 125 253 209 102 83 189 158 194 165 9 12 -41 76 -298 384 l-71 84 50 41
c148 121 201 198 223 324 23 128 -16 241 -129 377 -41 50 -141 170 -222 268
-81 97 -149 177 -151 177 -1 0 -63 -50 -137 -110z m141 -172 c10 -13 77 -95
150 -183 73 -88 141 -178 151 -200 11 -23 19 -64 19 -96 0 -86 -36 -144 -139
-228 l-84 -68 -61 26 c-53 22 -76 26 -167 26 -104 0 -108 -1 -185 -40 -61 -31
-83 -48 -98 -76 -51 -95 54 -169 150 -104 41 28 94 45 139 45 62 0 58 -14 -30
-86 -110 -90 -126 -131 -72 -192 14 -15 32 -22 57 -22 31 0 52 13 141 85 57
46 107 85 110 85 8 0 249 -287 255 -305 8 -19 -347 -314 -409 -340 -42 -17
-106 -19 -160 -4 -46 13 -86 46 -164 141 l-61 74 19 39 c65 140 43 331 -51
438 -27 31 -39 37 -71 37 -82 0 -115 -81 -64 -156 14 -20 29 -53 35 -73 12
-43 13 -108 2 -115 -4 -2 -37 31 -72 75 -60 74 -102 109 -130 109 -33 0 -80
-34 -90 -64 -15 -46 -5 -65 89 -178 45 -54 81 -100 81 -104 0 -6 -21 -24 -189
-162 l-126 -103 -20 24 c-11 13 -80 97 -154 187 -74 89 -142 178 -153 198 -26
53 -24 154 5 210 25 49 195 195 212 183 35 -28 131 -51 210 -51 96 0 156 17
229 63 77 48 94 124 38 167 -35 28 -70 25 -146 -15 -50 -26 -80 -35 -116 -35
-27 0 -51 4 -54 9 -3 4 32 39 79 76 95 76 114 109 95 155 -16 39 -46 60 -86
60 -25 0 -54 -18 -135 -85 -57 -47 -107 -85 -112 -85 -9 0 -33 27 -161 183
-53 64 -96 121 -96 127 0 11 339 294 386 322 19 11 60 22 92 25 93 9 146 -20
239 -129 50 -60 73 -94 70 -106 -3 -9 -15 -44 -26 -76 -29 -81 -28 -195 0
-273 46 -123 107 -179 169 -153 60 25 79 93 40 143 -11 14 -27 42 -35 61 -17
39 -20 136 -6 136 6 0 37 -34 71 -75 33 -41 71 -81 83 -90 32 -22 71 -18 106
11 25 20 31 34 31 64 0 33 -12 52 -85 143 -50 61 -83 110 -80 118 3 8 36 38
73 66 37 29 101 82 142 117 41 36 81 65 89 65 7 1 21 -9 31 -21z"/>
<path d="M3885 2154 c-249 -27 -444 -110 -598 -254 -217 -202 -326 -502 -315
-863 4 -128 9 -164 31 -232 75 -230 235 -376 485 -442 88 -24 115 -26 287 -27
205 0 304 13 470 60 146 42 137 32 156 181 10 70 16 129 15 130 -2 2 -32 -9
-67 -23 -248 -102 -524 -128 -690 -65 -203 77 -299 238 -299 499 0 307 116
571 307 698 192 127 444 133 796 18 43 -15 80 -24 81 -23 9 11 36 273 29 279
-9 8 -143 34 -258 50 -79 11 -369 20 -430 14z"/>
<path d="M7515 2154 c-226 -25 -410 -95 -556 -212 -41 -33 -84 -71 -97 -86
-179 -211 -266 -467 -267 -781 0 -168 18 -260 75 -373 69 -138 185 -244 332
-304 230 -93 598 -88 914 13 l92 29 11 78 c6 42 14 103 17 135 l7 58 -54 -22
c-176 -71 -322 -102 -479 -103 -178 0 -286 39 -386 138 -33 34 -72 86 -87 116
-32 65 -57 187 -57 273 0 162 57 385 130 508 48 81 161 189 238 228 181 91
425 88 723 -9 50 -17 94 -29 96 -26 8 8 34 218 31 249 -3 29 -7 33 -57 44
-165 36 -495 61 -626 47z"/>
<path d="M4806 1278 c-60 -458 -111 -850 -114 -870 l-5 -38 354 0 c494 0 620
14 792 86 353 149 568 527 567 997 0 141 -19 230 -69 332 -84 169 -241 275
-465 314 -36 7 -238 11 -506 11 l-446 0 -108 -832z m885 578 c125 -27 198 -81
257 -193 61 -115 77 -272 47 -449 -45 -261 -154 -438 -319 -519 -115 -56 -169
-66 -388 -72 l-198 -6 0 24 c0 26 147 1170 155 1207 5 22 7 22 193 22 122 0
210 -5 253 -14z"/>
</g>
</svg>
