<?xml version="1.0" standalone="no"?>
<!DOCTYPE svg PUBLIC "-//W3C//DTD SVG 20010904//EN"
 "http://www.w3.org/TR/2001/REC-SVG-20010904/DTD/svg10.dtd">
<svg version="1.0" xmlns="http://www.w3.org/2000/svg"
 width="860.000000pt" height="554.000000pt" viewBox="0 0 860.000000 554.000000"
 preserveAspectRatio="xMidYMid meet">

<g transform="translate(0.000000,554.000000) scale(0.100000,-0.100000)"
fill="#000000" stroke="none">
<path d="M890 5110 c-150 -37 -262 -102 -371 -218 -87 -91 -139 -176 -177
-287 l-27 -80 0 -1775 0 -1775 23 -70 c87 -259 279 -444 541 -518 l76 -22
2680 -1 c1474 -1 2991 2 3370 6 686 6 690 6 755 29 233 83 399 237 483 451 54
138 52 63 52 1910 0 1922 6 1765 -74 1934 -102 217 -298 372 -534 420 -68 14
-418 16 -3399 15 -3199 0 -3326 -1 -3398 -19z m1949 -760 c47 -24 96 -76 115
-122 22 -51 20 -143 -3 -194 l-18 -40 86 -157 85 -157 41 0 c64 0 144 -45 180
-102 l30 -47 170 0 170 0 30 47 c91 140 309 134 399 -12 59 -95 45 -214 -36
-294 -94 -94 -243 -95 -333 -2 l-39 40 -191 0 -191 0 -39 -40 c-41 -42 -106
-70 -162 -70 -33 0 -34 -2 -114 -162 l-81 -162 16 -33 c23 -47 21 -144 -3
-194 l-20 -41 85 -154 c71 -128 89 -154 108 -154 78 0 173 -55 217 -126 l21
-34 162 1 162 0 35 47 c43 59 86 88 153 103 143 32 286 -86 286 -236 0 -103
-72 -200 -169 -229 -67 -20 -75 -20 -140 0 -33 9 -69 30 -96 55 l-42 39 -188
0 -188 0 -42 -39 c-42 -39 -120 -71 -172 -71 -20 0 -34 -23 -103 -160 l-80
-160 16 -40 c41 -101 -4 -235 -97 -293 -189 -117 -430 76 -355 284 31 88 126
159 212 159 l43 0 85 158 86 159 -17 34 c-25 49 -28 128 -9 187 l17 50 -81
161 -80 161 -43 0 c-52 0 -141 42 -164 76 -15 24 -16 24 -210 24 l-196 0 -39
-36 c-50 -45 -95 -64 -150 -64 l-43 0 -83 -165 -82 -166 16 -31 c24 -46 22
-144 -4 -194 -83 -163 -301 -188 -409 -46 -115 151 -20 366 173 388 49 6 51 8
79 63 16 31 54 99 83 151 l54 94 -17 36 c-26 55 -30 129 -10 190 l18 53 -79
159 -79 158 -40 0 c-79 1 -167 57 -208 135 -29 55 -29 155 0 210 47 88 123
135 218 135 68 0 110 -17 163 -65 73 -66 98 -187 56 -272 l-21 -41 85 -155 86
-155 53 -5 c72 -7 138 -47 172 -103 l26 -43 173 -1 c94 0 172 4 172 9 0 18 81
99 117 116 20 10 59 20 86 24 l49 6 84 153 84 153 -16 31 c-26 50 -30 140 -9
195 l18 46 -79 159 c-71 143 -81 158 -104 158 -47 0 -124 29 -162 60 -20 17
-49 55 -64 86 -97 199 127 417 325 314z m2193 -1197 c37 -17 87 -50 111 -72
44 -41 104 -118 96 -125 -2 -2 -42 -23 -88 -46 l-84 -42 -38 45 c-53 62 -116
90 -201 90 -113 0 -202 -57 -260 -166 -20 -36 -23 -57 -23 -142 0 -115 18
-164 83 -230 56 -57 113 -79 202 -80 100 0 156 29 222 117 12 15 20 13 97 -23
47 -22 87 -41 89 -44 9 -9 -40 -74 -93 -124 -123 -117 -306 -151 -487 -90
-348 115 -454 566 -194 825 107 106 213 145 386 141 105 -3 121 -6 182 -34z
m1985 19 c62 -20 102 -42 149 -82 42 -37 104 -112 104 -127 0 -7 -38 -32 -84
-55 l-85 -42 -40 46 c-140 158 -387 105 -472 -102 -8 -21 -14 -69 -14 -120 0
-73 4 -93 28 -142 66 -134 214 -198 349 -152 45 15 115 71 135 107 9 17 16 16
96 -24 48 -24 87 -48 87 -54 0 -5 -20 -35 -44 -66 -136 -173 -387 -218 -606
-108 -139 70 -225 187 -257 349 -22 109 -8 213 41 315 61 126 148 202 287 249
95 33 236 36 326 8z m-1154 -6 c101 -20 176 -57 247 -123 217 -201 190 -586
-52 -746 -115 -75 -143 -81 -435 -85 l-263 -4 0 486 0 486 214 0 c145 0 239
-5 289 -14z"/>
<path d="M5570 2689 l0 -302 123 6 c133 5 173 16 240 63 129 92 144 337 27
454 -60 60 -128 80 -270 80 l-120 0 0 -301z"/>
</g>
</svg>
